<?xml version="1.0" encoding="UTF-8"?>
<!DOCTYPE svg PUBLIC "-//W3C//DTD SVG 1.1//EN" "http://www.w3.org/Graphics/SVG/1.1/DTD/svg11.dtd">
<!-- Creator: CorelDRAW 2020 (64 Bit Versão de avaliação) -->
<svg xmlns="http://www.w3.org/2000/svg" xml:space="preserve" width="190mm" height="190mm" version="1.1" style="shape-rendering:geometricPrecision; text-rendering:geometricPrecision; image-rendering:optimizeQuality; fill-rule:evenodd; clip-rule:evenodd"
viewBox="0 0 19000 19000"
 xmlns:xlink="http://www.w3.org/1999/xlink"
 xmlns:xodm="http://www.corel.com/coreldraw/odm/2003"
 enable-background="new 0 0 64 64">
 <defs>
  <style type="text/css">
   <![CDATA[
    .str0 {stroke:#373435;stroke-width:20;stroke-miterlimit:22.9256}
    .fil0 {fill:#FEFEFE}
    .fil4 {fill:#373435}
    .fil5 {fill:#1F9EE9}
    .fil3 {fill:#4D4444}
    .fil2 {fill:orange}
    .fil1 {fill:black;fill-rule:nonzero}
   ]]>
  </style>
 </defs>
 <g id="Camada_x0020_1">
  <metadata id="CorelCorpID_0Corel-Layer"/>
  <circle class="fil0 str0" cx="9491.93" cy="9508.07" r="9500"/>
 </g>
 <g id="Camada_x0020_1_0">
  <metadata id="CorelCorpID_1Corel-Layer"/>
 </g>
 <g id="Camada_x0020_1_1">
  <metadata id="CorelCorpID_2Corel-Layer"/>
  <g id="bomb-hidraulico.svg">
   <path class="fil1" d="M7164.56 7444.31c-204.26,0 -370.42,166.16 -370.42,370.42 0,204.26 166.16,370.42 370.42,370.42 204.26,0 370.42,-166.16 370.42,-370.42 0,-204.26 -166.16,-370.42 -370.42,-370.42zm-52.92 370.42c0,-29.21 23.71,-52.92 52.92,-52.92 29.21,0 52.92,23.71 52.92,52.92 0,58.21 -105.83,58.21 -105.83,0l-0.01 0z"/>
   <path class="fil1" d="M9281.22 8185.14c204.26,0 370.42,-166.16 370.42,-370.42 0,-204.26 -166.16,-370.42 -370.42,-370.42 -204.26,0 -370.42,166.16 -370.42,370.42 0,204.26 166.16,370.42 370.42,370.42zm0 -423.33c29.21,0 52.92,23.71 52.92,52.92 0,58.21 -105.83,58.21 -105.83,0 0,-29.21 23.71,-52.92 52.92,-52.92l-0.01 0z"/>
   <path class="fil1" d="M8222.89 9878.48c437.52,0 793.75,-356.24 793.75,-793.75l-317.5 0c0,262.47 -213.78,476.25 -476.25,476.25 -262.47,0 -476.25,-213.78 -476.25,-476.25l-317.5 0c0,437.52 356.24,793.75 793.75,793.75z"/>
   <path class="fil1" d="M15522.22 10381.4l-270.3 -150.07c333.8,-1253.28 -270.93,-2083.86 -298.24,-2120.05 -45.93,-61.17 -119.8,-93.35 -197.06,-82.97 -75.78,9.95 -140.34,60.11 -168.91,131.23l-383.12 957.79 -625.48 156.42 -246.17 -246.17 381.85 -1145.75c24.98,-74.72 6.35,-156.63 -47.84,-213.36 -54.4,-56.94 -136.53,-78.32 -211.03,-57.36 -66.25,19.26 -1634.7,483.45 -1634.7,1896.96 0,894.5 392.01,1323.55 706.76,1668.57 161.29,176.32 300.36,328.93 362.59,515.2 68.16,204.68 112.82,509.48 142.66,821.69l-391.8 65.41c-285.75,-659.77 -2319.44,-1413.3 -3148.54,-1696.51l0 -422.7 702.95 -385.23c12.07,-6.56 23.28,-14.18 33.66,-22.86 339.09,-282.36 533.4,-697.23 533.4,-1138.34l0 -463.55 105.82 -0.02c408.52,0 740.83,-332.32 740.83,-740.83 0,-408.51 -332.32,-740.83 -740.83,-740.83l-105.83 -0.01 0 -1481.67 0 -1058.33c0,-700.41 -569.6,-1270 -1270,-1270l-4021.67 0c-117.05,0 -211.67,94.62 -211.67,211.67l0 1058.33c0,374.86 164.25,711.2 423.33,944.03l0 1595.97 -105.82 0c-408.52,0 -740.83,332.32 -740.83,740.83 0,408.51 332.32,740.83 740.83,740.83l105.83 0.01 0 463.34c0,441.11 194.31,855.98 533.4,1138.34 10.37,8.68 21.8,16.3 33.66,22.86l702.95 385.45 0 422.7c-844.76,288.5 -2941.53,1065.32 -3163.99,1733.76 -211.88,635.42 -622.3,2274.57 -639.66,2344 -4.23,16.72 -6.35,33.87 -6.35,51.22l0 635c0,117.05 94.62,211.67 211.67,211.67l11429.99 -0.01c350.1,0 635,-284.9 635,-635l0 -1058.33c0,-350.1 -284.9,-635 -635,-635l-202.57 0c16.51,-264.16 63.5,-764.75 198.54,-1440.18 189.87,-949.96 734.48,-1332.02 756.5,-1347.05 61.38,-40.85 97.16,-110.91 93.98,-184.57 -2.96,-73.87 -44.24,-140.76 -108.8,-176.53l0.01 0zm-1109.77 -879.69c66.04,-16.3 120.02,-63.5 145.42,-126.79l249.34 -623.15c102.45,288.08 183.73,724.96 62.44,1267.04l-783.59 -435.4 326.39 -81.7zm-2219.54 3151.72l-194.73 32.39c-86.78,14.39 -155.58,81.07 -172.72,167.22l-182.03 909.53 -245.53 31.54 0 -1665.18c383.12,196 670.98,379.73 795.02,524.51l-0.01 -0.01zm-5875.02 1796.2l0 -1824.57 225 600.29c20.32,54.19 62.02,97.58 115.15,120.23 52.92,22.65 113.45,22.44 166.37,-0.21l1398.48 -599.02 1398.27 599.23c26.46,11.43 55.03,17.15 83.4,17.15 28.37,0 56.73,-5.5 83.19,-16.93 53.13,-22.65 94.83,-66.25 115.15,-120.23l225 -600.29 0 1332.87 -3810.01 491.48zm-846.67 -2525.18c135.26,-62.02 277.5,-124.04 423.33,-185.63l0 2765.43 -423.33 54.61 0 -2634.41zm1905 -1243.12c154.09,62.87 319.41,96.73 486.41,96.73l720.52 0c166.79,0 332.32,-33.87 486.41,-96.73l0 688.76 -846.67 846.67 -846.67 -846.67 0 -688.76zm3175 1057.49c145.84,61.6 288.08,123.61 423.33,185.63l0 1924.26 -423.33 54.61 0 -2164.5zm-471.8 -190.72l-495.3 1321.01 -990.6 -424.39 837.35 -837.35c39.79,-39.79 62.02,-93.35 62.02,-149.65l0 -127c195.79,68.79 392.43,142.03 586.53,217.38zm260.14 -5106.45l-464.82 -743.59 464.82 0 0 743.59zm846.66 1267.24c0,175.05 -142.45,317.5 -317.5,317.5l-105.83 0 0 -635 105.83 0c175.05,0 317.5,142.45 317.5,317.5zm-5503.33 -4127.5l3810 0c466.94,0 846.67,379.73 846.67,846.67l0 846.67 -3810 0c-466.94,0 -846.67,-379.73 -846.67,-846.67l0 -846.67zm846.67 2116.67l41.48 0 -464.82 743.59 0 -817.67c132.72,46.99 274.74,74.08 423.33,74.08l0.01 0zm-952.5 2328.33c-175.05,0 -317.5,-142.45 -317.5,-317.5 0,-175.05 142.45,-317.5 317.5,-317.5l105.83 0 0 635 -105.83 0zm529.16 886.68l0 -1672.8 963.93 -1542.2 2305.48 -0.01 963.93 1542.42 0 1672.59c0,308.61 -133.14,599.02 -365.97,800.31l-976.63 535.09c-126.37,69.64 -269.45,106.26 -413.81,106.26l-720.52 0c-144.36,0 -287.23,-36.62 -413.81,-106.05l-976.63 -535.09c-232.83,-201.3 -365.97,-491.91 -365.97,-800.52zm908.69 2694.3l837.35 837.35 -990.6 424.39 -495.3 -1321.01c194.1,-75.35 390.74,-148.59 586.53,-217.38l0 127c0,56.3 22.23,109.86 62.02,149.65zm-3448.69 3430.27c53.55,-212.94 431.38,-1709.21 623.99,-2287.69 51.44,-154.09 384.39,-378.88 857.67,-621.03l0 2670.81c0,60.75 26.25,118.96 71.97,158.96 38.74,34.08 88.69,52.71 139.7,52.71 9.1,0 17.99,-0.64 27.09,-1.69l1639.78 -211.67 0 636.69 -3360.2 0 0 -397.09zm11430 -872.91l0 1058.33c0,116.84 -94.83,211.67 -211.67,211.67l-7434.79 0 0 -691.3 4498.55 -580.39c90.17,-11.85 162.77,-79.38 180.55,-168.49l183.09 -915.04 853.44 -142.24c13.55,233.89 19.9,444.71 23.07,592.46l-420.57 0 0 423.33 2116.67 0c116.84,0 211.67,94.83 211.67,211.67l-0.01 0zm-630.76 -2158.16c-144.57,723.05 -192.19,1249.89 -207.86,1523.15l-645.37 0.01c-8.47,-439.63 -46.78,-1452.67 -220.13,-1971.89 -90.38,-271.36 -273.9,-472.23 -451.27,-666.54 -293.16,-321.1 -596.27,-652.99 -596.27,-1383.24 0,-705.49 531.5,-1114.64 922.44,-1319.95l-276.65 829.73c-25.4,75.99 -5.5,160.02 51.01,216.54l423.33 423.33c13.76,13.76 29.85,25.82 46.99,35.35l1645.29 913.98c-226.7,239.61 -549.49,687.71 -691.52,1399.54l0.01 -0.01z"/>
   <polygon class="fil1" points="13203.29,10534.49 13421.3,10171.27 14480.27,10806.9 14262.25,11170.12 "/>
   <path class="fil1" d="M11397.89 4639.73l0 2328.33 423.33 0 0 -211.67 635 0c117.05,0 211.67,-94.62 211.67,-211.67 1212.43,0 2210.22,-931.76 2317.54,-2116.67l10.79 0.01c117.05,0 211.67,-94.62 211.67,-211.67l0 -635 211.67 0 0 -423.33 -2328.34 0 0 423.33 211.67 0 0 635c0,106.89 80.43,191.56 183.3,205.95 -92.5,367.24 -422.7,640.72 -818.3,640.72 0,-117.05 -94.62,-211.67 -211.67,-211.67l-635 0 0 -211.67 -423.33 0.01zm3386.67 -1058.34l0 423.33 -1058.34 0.01 0 -423.33 1058.34 -0.01zm-865.72 846.67l641.56 0c-105.62,951.02 -913.55,1693.33 -1892.51,1693.33l0 -635c628.02,0 1149.56,-458.68 1250.95,-1058.33zm-1674.28 846.67l0 1058.33 -423.34 0 0 -1058.33 423.34 0z"/>
   <path class="fil1" d="M15065.65 5391.78c-103.08,206.59 -603.04,1261.32 -300.78,1750.48 70.27,113.45 212.51,249.13 490.22,249.13 277.71,0 419.74,-135.68 490.01,-249.34 302.26,-489.16 -197.7,-1543.9 -300.78,-1750.48 -71.97,-143.3 -306.71,-143.3 -378.67,0.21zm319.41 1527.81c-9.1,14.39 -30.27,48.47 -129.96,48.47 -99.69,0 -120.86,-34.08 -129.96,-48.47 -85.51,-138.43 -10.58,-514.35 129.96,-897.89 140.55,383.54 215.48,759.25 129.96,897.89z"/>
  </g>
  <path class="fil2 str0" d="M10339.56 5274.73l0 -846.67c0,-466.94 -379.73,-846.67 -846.67,-846.67l-3810 0 0 846.67c0,466.94 379.73,846.67 846.67,846.67l3810 0z"/>
  <polygon class="fil2 str0" points="10339.56,5698.06 9874.74,5698.06 10339.56,6441.65 "/>
  <path class="fil2 str0" d="M6106.22 6441.65l464.82 -743.59 -41.49 0c-148.59,0 -290.61,-27.09 -423.33,-74.08l0 817.67z"/>
  <path class="fil3 str0" d="M13167 8188.11c-390.94,205.31 -922.44,614.46 -922.44,1319.95 0,730.25 303.11,1062.14 596.27,1383.24 177.37,194.31 360.89,395.18 451.27,666.54 173.35,519.22 211.66,1532.26 220.13,1971.89l645.37 -0.01c15.67,-273.26 63.29,-800.1 207.85,-1523.14 142.03,-711.83 464.82,-1159.93 691.52,-1399.54l-1645.29 -913.98c-17.14,-9.53 -33.23,-21.59 -46.99,-35.35l-423.33 -423.33c-56.51,-56.52 -76.41,-140.55 -51.01,-216.54l276.65 -829.73zm36.29 2346.38l218.01 -363.22 1058.97 635.63 -218.02 363.22 -1058.96 -635.63z"/>
  <path class="fil3 str0" d="M14557.87 9374.92c-25.4,63.29 -79.38,110.49 -145.42,126.79l-326.39 81.7 783.59 435.4c121.29,-542.08 40.01,-978.96 -62.44,-1267.04l-249.34 623.15z"/>
  <path class="fil3 str0" d="M15056.97 10607.04l-1645.29 -913.98c-17.14,-9.53 -33.23,-21.59 -46.99,-35.35l-423.33 -423.33c-56.51,-56.52 -76.41,-140.55 -51.01,-216.54l276.65 -829.73c-390.94,205.31 -922.44,614.46 -922.44,1319.95 0,730.25 303.11,1062.14 596.27,1383.24 177.37,194.31 360.89,395.18 451.27,666.54 173.35,519.22 211.66,1532.26 220.13,1971.89l645.37 -0.01c15.67,-273.26 63.29,-800.1 207.85,-1523.14 142.03,-711.83 464.82,-1159.93 691.52,-1399.54zm-1853.68 -72.55l218.01 -363.22 1058.97 635.63 -218.02 363.22 -1058.96 -635.63z"/>
  <path class="fil3 str0" d="M14262.25 11170.12l-1058.96 -635.63 218.01 -363.22 1058.97 635.63 -218.02 363.22zm-850.57 -1477.06c-17.14,-9.53 -33.23,-21.59 -46.99,-35.35l-423.33 -423.33c-56.51,-56.52 -76.41,-140.55 -51.01,-216.54l276.65 -829.73c-390.94,205.31 -922.44,614.46 -922.44,1319.95 0,730.25 303.11,1062.14 596.27,1383.24 177.37,194.31 360.89,395.18 451.27,666.54 173.35,519.22 211.66,1532.26 220.13,1971.89l645.37 -0.01c15.67,-273.26 63.29,-800.1 207.85,-1523.14 142.03,-711.83 464.82,-1159.93 691.52,-1399.54l-1645.29 -913.98z"/>
  <path class="fil4 str0" d="M13203.29 10534.49l218.01 -363.22 1058.97 635.63 -218.02 363.22 -1058.96 -635.63zm208.39 -841.43c-17.14,-9.53 -33.23,-21.59 -46.99,-35.35l-423.33 -423.33c-56.51,-56.52 -76.41,-140.55 -51.01,-216.54l276.65 -829.73c-390.94,205.31 -922.44,614.46 -922.44,1319.95 0,730.25 303.11,1062.14 596.27,1383.24 177.37,194.31 360.89,395.18 451.27,666.54 173.35,519.22 211.66,1532.26 220.13,1971.89l645.37 -0.01c15.67,-273.26 63.29,-800.1 207.85,-1523.14 142.03,-711.83 464.82,-1159.93 691.52,-1399.54l-1645.29 -913.98z"/>
  <path class="fil4 str0" d="M14086.06 9583.41l783.59 435.4c121.29,-542.08 40.01,-978.96 -62.44,-1267.04l-249.34 623.15c-25.4,63.29 -79.38,110.49 -145.42,126.79l-326.39 81.7z"/>
  <path class="fil3 str0" d="M15056.97 10607.04l-1645.29 -913.98c-17.14,-9.53 -33.23,-21.59 -46.99,-35.35l-423.33 -423.33c-56.51,-56.52 -76.41,-140.55 -51.01,-216.54l276.65 -829.73c-390.94,205.31 -922.44,614.46 -922.44,1319.95 0,730.25 303.11,1062.14 596.27,1383.24 177.37,194.31 360.89,395.18 451.27,666.54 173.35,519.22 211.66,1532.26 220.13,1971.89l645.37 -0.01c15.67,-273.26 63.29,-800.1 207.85,-1523.14 142.03,-711.83 464.82,-1159.93 691.52,-1399.54zm-1853.68 -72.55l218.01 -363.22 1058.97 635.63 -218.02 363.22 -1058.96 -635.63z"/>
  <path class="fil3 str0" d="M14086.06 9583.41l783.59 435.4c121.29,-542.08 40.01,-978.96 -62.44,-1267.04l-249.34 623.15c-25.4,63.29 -79.38,110.49 -145.42,126.79l-326.39 81.7z"/>
  <polygon class="fil3 str0" points="12244.56,6333.06 12244.56,5274.73 11821.22,5274.73 11821.22,6333.06 "/>
  <path class="fil3 str0" d="M12667.89 5486.39l0 635c978.96,0 1786.89,-742.31 1892.51,-1693.33l-641.56 0c-101.39,599.65 -622.93,1058.33 -1250.95,1058.33z"/>
  <polygon class="fil3 str0" points="13726.22,4004.73 14784.56,4004.72 14784.56,3581.39 13726.22,3581.4 "/>
  <path class="fil2 str0" d="M9621.16 13345.58l-1398.27 -599.23 -1398.48 599.02c-52.92,22.65 -113.45,22.86 -166.37,0.21 -53.13,-22.65 -94.83,-66.04 -115.15,-120.23l-225 -600.29 0 1824.57 3810.01 -491.48 0 -1332.87 -225 600.29c-20.32,53.98 -62.02,97.58 -115.15,120.23 -26.46,11.43 -54.82,16.93 -83.19,16.93 -28.37,0 -56.94,-5.72 -83.4,-17.15z"/>
  <path class="fil2 str0" d="M5047.88 14799.73l0 -2670.81c-473.28,242.15 -806.23,466.94 -857.67,621.03 -192.61,578.48 -570.44,2074.75 -623.99,2287.69l0 397.09 3360.2 0 0 -636.69 -1639.78 211.67c-9.1,1.05 -17.99,1.69 -27.09,1.69 -51.01,0 -100.96,-18.63 -139.7,-52.71 -45.72,-40 -71.97,-98.21 -71.97,-158.96z"/>
  <path class="fil2 str0" d="M11397.9 12128.93l0 1665.18 245.53 -31.54 182.03 -909.53c17.14,-86.15 85.94,-152.83 172.72,-167.22l194.74 -32.38c-124.04,-144.78 -411.9,-328.51 -795.02,-524.51z"/>
  <path class="fil4 str0" d="M5894.55 14504.25l0 -2765.43c-145.83,61.59 -288.07,123.61 -423.33,185.63l0 2634.41 423.33 -54.61z"/>
  <path class="fil4 str0" d="M10551.22 11738.82l0 2164.5 423.33 -54.61 0 -1924.26c-135.25,-62.02 -277.49,-124.03 -423.33,-185.63z"/>
  <path class="fil5 str0" d="M15255.1 6021.7c-140.54,383.54 -215.47,759.46 -129.96,897.89 9.1,14.39 30.27,48.47 129.96,48.47 99.69,0 120.86,-34.08 129.96,-48.47 85.52,-138.64 10.59,-514.35 -129.96,-897.89z"/>
 </g>
</svg>
