<?xml version="1.0" encoding="UTF-8"?>
<!DOCTYPE svg PUBLIC "-//W3C//DTD SVG 1.1//EN" "http://www.w3.org/Graphics/SVG/1.1/DTD/svg11.dtd">
<!-- Creator: CorelDRAW 2020 (64 Bit Versão de avaliação) -->
<svg xmlns="http://www.w3.org/2000/svg" xml:space="preserve" width="190mm" height="190mm" version="1.1" style="shape-rendering:geometricPrecision; text-rendering:geometricPrecision; image-rendering:optimizeQuality; fill-rule:evenodd; clip-rule:evenodd"
viewBox="0 0 19000 19000"
 xmlns:xlink="http://www.w3.org/1999/xlink"
 xmlns:xodm="http://www.corel.com/coreldraw/odm/2003"
 enable-background="new 0 0 64 64">
 <defs>
  <style type="text/css">
   <![CDATA[
    .str0 {stroke:#373435;stroke-width:20;stroke-miterlimit:22.9256}
    .fil0 {fill:none}
    .fil2 {fill:#FEFEFE}
    .fil3 {fill:orange}
    .fil1 {fill:black;fill-rule:nonzero}
   ]]>
  </style>
 </defs>
 <g id="Camada_x0020_1">
  <metadata id="CorelCorpID_0Corel-Layer"/>
  <circle class="fil0 str0" cx="9491.93" cy="9508.07" r="9500"/>
  <g id="pintor.svg">
   <g>
    <path class="fil1" d="M14689.97 9999.91l-1731.38 -247 0 -396.51c21.67,-15.17 43.33,-30.33 61.1,-45.71 342.49,-266.73 587.08,-640.75 693.39,-1061.74 57.29,-225.9 92.36,-457.64 105.23,-690.71l6.95 -0.17c0.97,0.01 2.03,0.01 2.98,0.01 477.25,0 864.29,-387.04 864.29,-864.29 0,-388.09 -258.73,-728.59 -632.58,-832.63 19.16,-72.37 28.97,-147.1 28.97,-221.94 0,-95.61 -15.92,-190.59 -47.01,-280.92l0.01 -833.56c0,-837.5 -679.17,-1516.67 -1516.66,-1516.67l-1733.34 0c-837.49,0 -1516.66,679.17 -1516.66,1516.67l0 833.51c-31.07,90.38 -46.99,185.36 -46.99,280.97 0,74.84 9.81,149.57 28.99,221.88 -372.58,105.2 -629.85,445.14 -629.85,832.26 0,477.48 387.01,864.6 864.5,864.71l6.73 0c12.89,232.31 48.95,463.64 106.12,688.82 110.24,447.43 378.2,840.91 753.81,1107.69l0 411.67 -2166.65 463.75c-320.48,69.78 -619.14,219.46 -866.69,434.8l0.02 -290.06c-0.54,-183.85 -79.41,-358.74 -216.65,-480.97l-0.01 -819.03c0,-119.65 -97.02,-216.67 -216.66,-216.67l-433.34 0 0 -462.15c-0.79,-215.28 -159.02,-397.63 -372.01,-428.8l-2661.33 -380.23 0 -1112.15 433.33 0 0 650c0.01,119.64 97.03,216.66 216.68,216.66l2423.19 0c90.92,259.51 336.02,433.32 610.99,433.32 73.51,0 146.62,-12.57 215.86,-37.07l-0.05 253.75c0.01,358.93 291.08,650 650.01,650 358.93,0 650,-291.07 650,-650l-0.01 -2600c0.01,-119.64 -97.01,-216.66 -216.65,-216.66l-4333.35 0c-119.64,0 -216.66,97.02 -216.66,216.66l0 650 -433.34 0c-239.27,0 -433.32,194.05 -433.32,433.34l0 1112.15c0.79,215.28 159.02,397.63 372.01,428.8l2661.31 380.23 0 462.15 -433.33 0c-119.64,0 -216.66,97.02 -216.66,216.67l0 650c-358.93,0 -650,291.07 -650,650l0 1300c0.15,46.71 5.53,93.28 15.83,138.83 -10.13,24.72 -15.51,51.17 -15.82,77.81l-0.02 2944.53c0.01,0.2 0.01,0.92 0.01,1.2 0,625.35 492.08,1140.29 1116.72,1168.72 18.42,0 36.62,1.3 54.82,1.3 344.24,-0.65 671.2,-152.02 894.59,-413.73l1640.17 -2155.84 -0.01 -0.02 518.7 -679.47 108.34 0 0 3250 433.33 0 0 -3250 4333.34 0 0 3250 433.33 0 0 -2600 1300 0 0 2600 433.34 0 0 -4506.67c-4.45,-752.97 -557.49,-1390.48 -1302.02,-1501.43l0.06 -0.06zm-9314.72 6008.16l-49.21 0 -167.45 -1172.16c0,0.44 0,0.89 0,1.34 0,195.52 77.99,383.06 216.67,520.83 126.82,127.79 296.86,203.96 476.69,213.38 340.87,-21.16 606.64,-303.92 606.64,-645.49 0,-0.39 0,-0.87 0,-1.23l0 -1733.34 -866.66 -0.01c-119.65,0 -216.67,-97.02 -216.67,-216.67l0 -650c-0.15,-6.51 -0.31,-13.34 -0.31,-19.93 0,-6.58 0.16,-13.42 0.3,-19.92l0 3723.2zm-1083.33 -10400l3900 0 0 2383.33c0.01,119.65 -97.01,216.67 -216.66,216.67 -119.64,0 -216.66,-97.02 -216.66,-216.67l-0.01 -866.66c0.01,-119.65 -97.02,-216.67 -216.66,-216.67 -119.65,0 -216.67,97.02 -216.67,216.67 0,119.64 -97.02,216.66 -216.67,216.66 -119.64,0 -216.66,-97.02 -216.66,-216.66l-0.01 -1083.34 -433.33 0 0 866.67 -2166.67 0 0 -1300zm7204.17 4116.67l325 0c241.19,-0.93 480.16,-47.5 704.25,-136.13l-0.08 352.79c0,478.57 -388.11,866.67 -866.67,866.67 -478.57,0 -866.67,-388.1 -866.67,-866.67l0 -352.95c224.03,88.78 463.11,135.13 704.08,136.31l0.09 -0.02zm162.5 1516.66c435.98,-0.32 842.92,-219.17 1083.36,-582.78l-0.03 1666.12 -2166.67 0 0 -1666.17c240.42,363.66 647.36,582.51 1083.34,582.83zm-192.83 -5854.11c-293.26,-48.89 -592.54,-73.94 -890.51,-73.94 -297.96,0 -597.24,25.05 -890.58,73.83l-594.11 99.02c66.23,-37.22 141.01,-56.96 216.99,-56.96 139.78,0 271.43,66.45 354.45,178.84l3993.17 -0.01c0.48,8.7 0.8,17.53 0.8,26.3 0,243.35 -197.36,440.71 -440.71,440.71 -24.1,0 -48.31,-1.99 -72.04,-5.93l-1677.46 -681.86zm2792.83 1304.11c0,239.29 -194.05,433.34 -433.33,433.34l0 -866.67c239.28,0 433.33,194.05 433.33,433.33zm-4550 -2166.66c0,-598.21 485.12,-1083.34 1083.33,-1083.34l1733.34 0c598.21,0 1083.33,485.13 1083.33,1083.34l0 650 -3900 0 0 -650zm-522.82 2472.82c-81.3,-81.09 -127.1,-191.27 -127.1,-306.16 0,-238.68 193.57,-432.24 432.25,-432.24 0.32,0 0.68,0 1,0l0 0 0 865.58c-114.8,-0.42 -224.81,-46.21 -306.12,-127.2l-0.03 0.02zm1145.08 1270.96c-182.94,-285.28 -320.01,-599.2 -405.48,-927.29l-0.12 -850.46c57.7,11.72 116.82,17.74 175.84,17.74 48.27,0 96.64,-4.09 144.16,-11.93l133.24 -21.67c-12.92,35.68 -19.59,73.33 -19.59,111.26 0,179.47 145.53,325 325,325 179.46,0 325,-145.53 325,-325 0,-72.65 -24.4,-143.32 -69.2,-200.49 237.36,-34.52 478.73,-52.16 718.89,-52.16 240.16,0 481.53,17.64 718.65,52.3 -44.56,57.03 -68.96,127.7 -68.96,200.35 0,179.47 145.54,325 325,325 179.46,0 325,-145.53 325,-325 0,-37.93 -6.67,-75.58 -19.64,-111.21l133.25 21.66 0.01 0c48.74,8.17 98.48,12.35 147.99,12.35 57.74,-0.48 115.6,-7.07 172.08,-19.1l-0.05 851.53c0.01,2.11 0.01,4.08 0.01,6.05 0,268.16 -33.47,536.3 -99.62,795.79 -82.82,328.84 -273.85,621.05 -541.73,829.15 -39.7,31.65 -81.48,60.68 -124.95,86.76 -239.15,151.41 -517.13,232.26 -800.39,232.26 -1.28,0 -2.92,0 -4.2,0l-324.95 -0.01c-695.67,-1.85 -1301.76,-475.68 -1471.35,-1150.12l306.11 127.24zm-4522.27 4056.22l866.67 0 0 433.33 -866.67 0 0 -433.33zm0 -3033.34l866.67 0 0 433.34 -866.67 0 0 -433.34zm-650 1083.34c0.01,-119.65 97.03,-216.67 216.68,-216.67l1299.99 0c119.66,0 216.68,97.02 216.68,216.67l0 1300c0,119.63 -97.02,216.65 -216.67,216.65l-1300.01 0.01c-119.64,-0.01 -216.66,-97.03 -216.66,-216.67l-0.01 -1299.99zm1950.01 4893.63l0 -2076.97c119.65,-0.01 216.67,-97.03 216.67,-216.67l-0.01 -428.56 858.44 786.29 -1075.1 1935.91zm1733.33 -2943.63c-0.32,-0.01 -0.66,-0.01 -0.98,-0.01 -67.6,0 -131.38,31.58 -172.35,85.36l-439.18 576.11 -1024.62 -938.38c77.88,-108.76 120.16,-239.29 120.47,-373.13l-0.01 -358.53 7.8 -11.92c219.4,-332 560.47,-565.53 949.45,-649.96l776.09 -166.66 0 1837.12 -216.67 0zm-858.87 -1020.5l0 -909.14 650 -139.32 0 2068.96 -650 -1020.5zm3683.34 0l0 -1081.17 650 92.73 0 2008.94 -650 -1020.5zm2383.33 650l208.87 0 0 -1577.99 369.64 52.65c532.08,79.21 927.05,534.52 930.38,1072.42l-1508.89 452.92zm-3691.13 1670.5l-433.34 0 0 -433.34 433.34 0 0 433.34zm3033.33 0l-433.33 0 0 -433.34 433.33 0 0 433.34zm-3466.67 2166.66c0,119.64 97.03,216.66 216.67,216.66l3033.34 0.01c119.64,-0.01 216.66,-97.03 216.66,-216.68l0 -1516.65c0,-119.66 -97.02,-216.68 -216.66,-216.68l-3033.34 0.01c-119.64,-0.01 -216.67,97.01 -216.67,216.66l0 1516.67zm650 -3033.33l2383.34 0 0 1083.33 -2600 0 216.66 -1083.33zm1120.39 -6500l-470.38 0 0 1300 253.71 0c2.94,0.04 6.11,0.04 9.11,0.04 249.49,0 495.08,-64.93 712.09,-187.73l216.67 375.26c-282.8,160.96 -603.07,245.78 -928.62,245.78 -2.98,0 -6.19,0 -9.17,0l216.59 -1733.35z"/>
   </g>
  </g>
 </g>
 <g id="Camada_x0020_1_0">
  <metadata id="CorelCorpID_1Corel-Layer"/>
  <path class="fil2 str0" d="M2991.93 7586.89l0 -1112.15c0,-239.29 194.05,-433.34 433.32,-433.34l433.34 0 0 -650c0,-119.64 97.02,-216.66 216.66,-216.66l4333.35 0c119.64,0 216.66,97.02 216.65,216.66l0.01 2600c0,358.93 -291.07,650 -650,650 -358.93,0 -650,-291.07 -650.01,-650l0.05 -253.75c-69.24,24.5 -142.35,37.07 -215.86,37.07 -274.97,0 -520.07,-173.81 -610.99,-433.32l-2423.19 0c-119.65,0 -216.67,-97.02 -216.68,-216.66l0 -650 -433.33 0 0 1112.15 2661.33 380.23c212.99,31.17 371.22,213.52 372.01,428.8l0 462.15 433.34 0c119.64,0 216.67,97.02 216.66,216.67l0.01 819.03c137.24,122.23 216.11,297.12 216.65,480.97l-0.02 290.06c247.55,-215.34 546.21,-365.02 866.69,-434.8l2166.65 -463.75 0 -411.67c-375.61,-266.78 -643.57,-660.26 -753.81,-1107.69 -57.17,-225.18 -93.23,-456.51 -106.12,-688.82l-6.73 0c-477.49,-0.11 -864.5,-387.23 -864.5,-864.71 0,-387.12 257.27,-727.06 629.85,-832.26 -19.18,-72.31 -28.99,-147.04 -28.99,-221.88 0,-60.28 6.33,-120.32 18.79,-179.1l-156.5 26.08c50.4,-28.32 105.75,-46.52 162.81,-53.61 6.18,-25.06 13.48,-49.87 21.89,-74.34l0 -833.51c0,-837.5 679.17,-1516.67 1516.66,-1516.67l1733.34 0c837.49,0 1516.66,679.17 1516.66,1516.67l-0.01 833.56c31.09,90.33 47.01,185.31 47.01,280.92 0,74.84 -9.81,149.57 -28.97,221.94 373.85,104.04 632.58,444.54 632.58,832.63 0,477.25 -387.04,864.29 -864.29,864.29 -0.95,0 -2.01,0 -2.98,-0.01l-6.95 0.17c-12.87,233.07 -47.94,464.81 -105.23,690.71 -106.31,420.99 -350.9,795.01 -693.39,1061.74 -17.77,15.38 -39.43,30.54 -61.1,45.71l0 396.51 1731.32 247.06c744.53,110.95 1297.57,748.46 1302.02,1501.43l0 4506.67 -433.34 0 0 -2600 -1300 0 0 2600 -433.33 0 0 -3250 -866.67 0 0 433.33 433.33 0 0 433.34 -433.33 0 0 216.66 -2600 0 216.66 -1083.33 -1083.33 0 0 3250 -433.33 0 0 -3250 -108.34 0 -518.69 679.49 -1133.99 1490.51 -188.98 340.3 0 -91.9 -317.2 416.93c-223.39,261.71 -550.35,413.08 -894.59,413.73 -18.2,0 -36.4,-1.3 -54.82,-1.3 -167.4,-7.62 -325.29,-50.18 -466.73,-120.45l0 122.69 -49.21 0 -23.12 -161.86c-346.53,-203.8 -577.66,-580.52 -577.66,-1009.1 0,-0.28 0,-1 -0.01,-1.2l0.02 -2944.53c0.31,-26.64 5.69,-53.09 15.82,-77.81 -10.3,-45.55 -15.68,-92.12 -15.83,-138.83l0 -1300c0,-358.93 291.07,-650 650,-650l0 -650c0,-119.65 97.02,-216.67 216.66,-216.67l433.33 0 0 -462.15 -2661.31 -380.23c-212.99,-31.17 -371.22,-213.52 -372.01,-428.8zm6933.32 6037.85l0 -433.34 433.34 0 0 433.34 -433.34 0zm216.67 2383.32c-119.64,0 -216.67,-97.02 -216.67,-216.66l0 -1516.67c0,-119.65 97.03,-216.67 216.67,-216.66l3033.34 -0.01c119.64,0 216.66,97.02 216.66,216.68l0 1516.65c0,119.65 -97.02,216.67 -216.66,216.68l-3033.34 -0.01zm8850.01 -6499.99c0,-5246.7 -4253.28,-9500 -9500,-9500 -5246.72,0 -9500,4253.3 -9500,9500 0,5246.7 4253.28,9500 9500,9500 5246.72,0 9500,-4253.3 9500,-9500z"/>
  <path class="fil2 str0" d="M2991.93 7586.89l0 -1112.15c0,-239.29 194.05,-433.34 433.32,-433.34l433.34 0 0 -650c0,-119.64 97.02,-216.66 216.66,-216.66l4333.35 0c119.64,0 216.66,97.02 216.65,216.66l0.01 2600c0,358.93 -291.07,650 -650,650 -358.93,0 -650,-291.07 -650.01,-650l0.05 -253.75c-69.24,24.5 -142.35,37.07 -215.86,37.07 -274.97,0 -520.07,-173.81 -610.99,-433.32l-2423.19 0c-119.65,0 -216.67,-97.02 -216.68,-216.66l0 -650 -433.33 0 0 1112.15 2661.33 380.23c212.99,31.17 371.22,213.52 372.01,428.8l0 462.15 433.34 0c119.64,0 216.67,97.02 216.66,216.67l0.01 819.03c137.24,122.23 216.11,297.12 216.65,480.97l-0.02 290.06c247.55,-215.34 546.21,-365.02 866.69,-434.8l2166.65 -463.75 0 -411.67c-375.61,-266.78 -643.57,-660.26 -753.81,-1107.69 -57.17,-225.18 -93.23,-456.51 -106.12,-688.82l-6.73 0c-477.49,-0.11 -864.5,-387.23 -864.5,-864.71 0,-387.12 257.27,-727.06 629.85,-832.26 -19.18,-72.31 -28.99,-147.04 -28.99,-221.88 0,-60.28 6.33,-120.32 18.79,-179.1l-156.5 26.08c50.4,-28.32 105.75,-46.52 162.81,-53.61 6.18,-25.06 13.48,-49.87 21.89,-74.34l0 -833.51c0,-837.5 679.17,-1516.67 1516.66,-1516.67l1733.34 0c837.49,0 1516.66,679.17 1516.66,1516.67l-0.01 833.56c31.09,90.33 47.01,185.31 47.01,280.92 0,74.84 -9.81,149.57 -28.97,221.94 373.85,104.04 632.58,444.54 632.58,832.63 0,477.25 -387.04,864.29 -864.29,864.29 -0.95,0 -2.01,0 -2.98,-0.01l-6.95 0.17c-12.87,233.07 -47.94,464.81 -105.23,690.71 -106.31,420.99 -350.9,795.01 -693.39,1061.74 -17.77,15.38 -39.43,30.54 -61.1,45.71l0 396.51 1731.32 247.06c744.53,110.95 1297.57,748.46 1302.02,1501.43l0 4506.67 -433.34 0 0 -2600 -1300 0 0 2600 -433.33 0 0 -3250 -866.67 0 0 433.33 433.33 0 0 433.34 -433.33 0 0 216.66 -2600 0 216.66 -1083.33 -1083.33 0 0 3250 -433.33 0 0 -3250 -108.34 0 -518.69 679.49 -1133.97 1490.49 -189 340.32 0 -91.9 -317.2 416.93c-223.39,261.71 -550.35,413.08 -894.59,413.73 -18.2,0 -36.4,-1.3 -54.82,-1.3 -167.4,-7.62 -325.29,-50.18 -466.73,-120.45l0 122.69 -49.21 0 -23.12 -161.86c-346.53,-203.8 -577.66,-580.52 -577.66,-1009.1 0,-0.28 0,-1 -0.01,-1.2l0.02 -2944.53c0.31,-26.64 5.69,-53.09 15.82,-77.81 -10.3,-45.55 -15.68,-92.12 -15.83,-138.83l0 -1300c0,-358.93 291.07,-650 650,-650l0 -650c0,-119.65 97.02,-216.67 216.66,-216.67l433.33 0 0 -462.15 -2661.31 -380.23c-212.99,-31.17 -371.22,-213.52 -372.01,-428.8zm6933.32 6037.85l0 -433.34 433.34 0 0 433.34 -433.34 0zm216.67 2383.32c-119.64,0 -216.67,-97.02 -216.67,-216.66l0 -1516.67c0,-119.65 97.03,-216.67 216.67,-216.66l3033.34 -0.01c119.64,0 216.66,97.02 216.66,216.68l0 1516.65c0,119.65 -97.02,216.67 -216.66,216.68l-3033.34 -0.01zm-649.99 -15999.99c-5246.72,0 -9500,4253.3 -9500,9500 0,5246.7 4253.28,9500 9500,9500 5246.72,0 9500,-4253.3 9500,-9500 0,-5246.7 -4253.28,-9500 -9500,-9500z"/>
  <path class="fil2 str0" d="M6675.25 10158.07l-1299.99 0c-119.65,0 -216.67,97.02 -216.68,216.67l0.01 1299.99c0,119.64 97.02,216.66 216.66,216.67l1300.01 -0.01c119.65,0 216.67,-97.02 216.67,-216.65l0 -1300c0,-119.65 -97.02,-216.67 -216.68,-216.67z"/>
  <path class="fil2 str0" d="M11533.28 7557.4c233.88,-7.35 463,-71.64 666.89,-187.02l216.67 375.26c-282.8,160.96 -603.07,245.78 -928.62,245.78 -2.98,0 -6.19,0 -9.17,0l54.23 -434.02zm-1508.54 583.88c169.59,674.44 775.68,1148.27 1471.35,1150.12l324.95 0.01c1.28,0 2.92,0 4.2,0 283.26,0 561.24,-80.85 800.39,-232.26 43.47,-26.08 85.25,-55.11 124.95,-86.76 267.88,-208.1 458.91,-500.31 541.73,-829.15 66.15,-259.49 99.62,-527.63 99.62,-795.79 0,-1.97 0,-3.94 -0.01,-6.05l0.05 -851.53c-56.48,12.03 -114.34,18.62 -172.08,19.1 -49.51,0 -99.25,-4.18 -148,-12.35l-133.25 -21.66c12.97,35.63 19.64,73.28 19.64,111.21 0,179.47 -145.54,325 -325,325 -179.46,0 -325,-145.53 -325,-325 0,-72.65 24.4,-143.32 68.96,-200.35 -228.03,-33.33 -460,-50.92 -691.04,-52.22l-152.92 1223.8c-15.05,0.47 -30.12,0.71 -45.2,0.71 -3,0 -6.17,0 -9.11,-0.04l-253.71 0 0 -1205.59c-95.6,8.35 -190.9,19.43 -285.56,33.2 44.8,57.17 69.2,127.84 69.2,200.49 0,179.47 -145.54,325 -325,325 -179.47,0 -325,-145.53 -325,-325 0,-37.93 6.67,-75.58 19.59,-111.26l-133.24 21.67c-47.52,7.84 -95.89,11.93 -144.16,11.93 -59.02,0 -118.14,-6.02 -175.84,-17.74l0.12 850.46c85.47,328.09 222.54,642.01 405.48,927.29l-306.11 -127.24z"/>
  <path class="fil2 str0" d="M9491.92 7124.74l0 -865.58c-0.32,0 -0.68,0 -1,0 -238.68,0 -432.25,193.56 -432.25,432.24 0,114.89 45.8,225.07 127.13,306.14 81.31,80.99 191.32,126.78 306.12,127.2z"/>
  <path class="fil2 str0" d="M13825.26 6258.07l0 866.67c239.28,0 433.33,-194.05 433.33,-433.34 0,-239.28 -194.05,-433.33 -433.33,-433.33z"/>
  <polygon class="fil2 str0" points="6675.25,12324.74 5808.58,12324.74 5808.58,12758.07 6675.25,12758.07 "/>
  <path class="fil2 str0" d="M7108.59 13191.4l0 1985.07 189 -248.42 886.1 -1595.59 -858.44 -786.29 0.01 428.56c0,119.64 -97.02,216.66 -216.67,216.67z"/>
  <path class="fil2 str0" d="M7204.79 12047.82l1024.62 938.38 439.18 -576.11c40.97,-53.78 104.75,-85.36 172.35,-85.36 0.32,0 0.66,0 0.98,0.01l216.67 0 0 -1837.12 -425.54 91.38 0 1745.74 -650 -1020.5 0 -551.62c-262.72,117.59 -489.08,308.12 -650,551.62l-7.8 11.92 0.01 358.53c-0.31,133.84 -42.59,264.37 -120.47,373.13z"/>
  <path class="fil2 str0" d="M10575.25 10658.57l0 1666.17 1741.14 0 -650 -1020.5 0 -62.87c-2.6,0.02 -5.2,0.03 -7.8,0.03 -435.98,-0.32 -842.92,-219.17 -1083.34,-582.83z"/>
  <path class="fil2 str0" d="M14258.59 10376.25l0 1515.29 1300.02 -390.22c-3.33,-537.9 -398.3,-993.21 -930.38,-1072.42l-369.64 -52.65z"/>
  <path class="fil2 str0" d="M12741.92 12324.74l0.03 -1666.12c-110.92,167.74 -257.27,304.67 -425.56,403.55l0 1262.57 425.53 0z"/>
  <path class="fil2 str0" d="M9708.59 5174.74l3900 0 0 -650c0,-598.21 -485.12,-1083.34 -1083.33,-1083.34l-1733.34 0c-598.21,0 -1083.33,485.13 -1083.33,1083.34l0 650z"/>
  <path class="fil2 str0" d="M13655.17 5608.07l-1646.25 0 1134.3 461.08c23.73,3.94 47.94,5.93 72.04,5.93 243.35,0 440.71,-197.36 440.71,-440.71 0,-8.77 -0.32,-17.6 -0.8,-26.3z"/>
  <path class="fil2 str0" d="M11821.09 9724.74l-325.09 0.02c-240.97,-1.18 -480.05,-47.53 -704.08,-136.31l0 352.95c0,478.57 388.1,866.67 866.67,866.67 2.6,0 5.2,-0.01 7.8,-0.03l0 -584.97 650 92.73 0 189.84c130.19,-151.63 208.87,-348.76 208.87,-564.24l0.08 -352.79c-224.09,88.63 -463.06,135.2 -704.25,136.13z"/>
  <path class="fil2 str0" d="M12316.39 10505.64c-157.39,183.31 -390.05,300.1 -650,302.4l0 433.33c232.07,-1.56 455.66,-65.01 650,-179.2l0 -556.53z"/>
  <path class="fil2 str0" d="M8633.05 10579l0 -323.22 -650 139.32 0 357.52c95.48,-42.73 195.76,-75.83 299.45,-98.34l350.55 -75.28z"/>
  <path class="fil3 str0" d="M8191.92 7991.4l0 -2383.33 -3900 0 0 1300 2166.67 0 0 -866.67 433.33 0 0.01 1083.34c0,119.64 97.02,216.66 216.67,216.66 119.64,0 216.66,-97.02 216.66,-216.66 0,-119.65 97.02,-216.67 216.67,-216.67 119.64,0 216.67,97.02 216.66,216.67l0.01 866.66c0,119.65 97.02,216.67 216.66,216.67 119.65,0 216.67,-97.02 216.66,-216.67z"/>
  <polygon class="fil3 str0" points="6675.25,9291.4 5808.58,9291.4 5808.58,9724.74 6675.25,9724.74 "/>
  <path class="fil3 str0" d="M12008.92 5608.07l1134.3 461.08c23.73,3.94 47.94,5.93 72.04,5.93 243.35,0 440.71,-197.36 440.71,-440.71 0,-8.77 -0.32,-17.6 -0.8,-26.3l-1646.25 0z"/>
  <path class="fil3 str0" d="M9708.59 5174.74l3900 0 0 -650c0,-598.21 -485.12,-1083.34 -1083.33,-1083.34l-1733.34 0c-598.21,0 -1083.33,485.13 -1083.33,1083.34l0 650z"/>
 </g>
</svg>
